<svg width="24" height="24" viewBox="0 0 24 24" fill="none" xmlns="http://www.w3.org/2000/svg">
<path d="M14.6667 8.00016V7.46683C14.6667 6.72009 14.6667 6.34672 14.5213 6.06151C14.3935 5.81063 14.1895 5.60665 13.9387 5.47882C13.6534 5.3335 13.2801 5.3335 12.5333 5.3335H11.4667C10.7199 5.3335 10.3466 5.3335 10.0613 5.47882C9.81046 5.60665 9.60649 5.81063 9.47866 6.06151C9.33333 6.34672 9.33333 6.72009 9.33333 7.46683V8.00016M10.6667 11.6668V15.0002M13.3333 11.6668V15.0002M6 8.00016H18M16.6667 8.00016V15.4668C16.6667 16.5869 16.6667 17.147 16.4487 17.5748C16.2569 17.9511 15.951 18.2571 15.5746 18.4488C15.1468 18.6668 14.5868 18.6668 13.4667 18.6668H10.5333C9.41323 18.6668 8.85318 18.6668 8.42535 18.4488C8.04903 18.2571 7.74307 17.9511 7.55132 17.5748C7.33333 17.147 7.33333 16.5869 7.33333 15.4668V8.00016" stroke="#4E1D09" stroke-width="1.5" stroke-linecap="round" stroke-linejoin="round"/>
</svg>
