<svg width="24" height="24" viewBox="0 0 24 24" fill="none" xmlns="http://www.w3.org/2000/svg">
<path d="M12 17.3332H18M6 17.3332H7.11636C7.44248 17.3332 7.60554 17.3332 7.75899 17.2963C7.89504 17.2637 8.0251 17.2098 8.1444 17.1367C8.27895 17.0542 8.39425 16.9389 8.62486 16.7083L17 8.33316C17.5523 7.78087 17.5523 6.88544 17 6.33316C16.4477 5.78087 15.5523 5.78087 15 6.33316L6.62484 14.7083C6.39424 14.9389 6.27894 15.0542 6.19648 15.1888C6.12338 15.3081 6.0695 15.4381 6.03684 15.5742C6 15.7276 6 15.8907 6 16.2168V17.3332Z" stroke="#4E1D09" stroke-width="1.5" stroke-linecap="round" stroke-linejoin="round"/>
</svg>
