<svg width="51" height="50" viewBox="0 0 51 50" fill="none" xmlns="http://www.w3.org/2000/svg">
<rect x="1" y="0.5" width="49" height="49" rx="24.5" fill="#F6FFFC"/>
<rect x="1" y="0.5" width="49" height="49" rx="24.5" stroke="#E7F5F1"/>
<path d="M19 40.3684C16.6835 37.0625 15.3208 33.0406 15.3208 28.6978C15.3208 23.0739 19.8773 18.5156 25.4979 18.5156C31.1185 18.5156 35.6751 23.0739 35.6751 28.6978" stroke="#90D0BF" stroke-width="3" stroke-linecap="round" stroke-linejoin="round"/>
<path d="M19.0001 40.3684C16.6836 37.0625 15.3209 33.0406 15.3209 28.6978C15.3209 23.0739 19.8775 18.5156 25.498 18.5156C31.1186 18.5156 35.6752 23.0739 35.6752 28.6978" stroke="#B4DFD4" stroke-width="3" stroke-linecap="round" stroke-linejoin="round"/>
<path d="M36.2266 38.8528C36.0433 38.863 35.8634 38.88 35.6785 38.88C30.0579 38.88 25.5013 34.3217 25.5013 28.6978" stroke="#B4DFD4" stroke-width="3" stroke-linecap="round" stroke-linejoin="round"/>
<path d="M36.2269 38.8531C36.0436 38.8632 35.8637 38.8802 35.6787 38.8802C30.0581 38.8802 25.5016 34.322 25.5016 28.698" stroke="#B4DFD4" stroke-width="3" stroke-linecap="round" stroke-linejoin="round"/>
<path d="M27.6157 41.6666C23.2916 38.97 20.4118 34.1708 20.4118 28.6979C20.4118 25.8859 22.6909 23.6068 25.5012 23.6068C28.3115 23.6068 30.5906 25.8859 30.5906 28.6979C30.5906 31.5099 32.8697 33.789 35.68 33.789C38.4903 33.789 40.7694 31.5099 40.7694 28.6979C40.7694 20.2619 33.9337 13.4246 25.5029 13.4246C17.072 13.4246 10.2363 20.2619 10.2363 28.6979C10.2363 30.5782 10.4468 32.4093 10.8337 34.1742" stroke="#B4DFD4" stroke-width="3" stroke-linecap="round" stroke-linejoin="round"/>
<path d="M27.6157 41.6666C23.2916 38.97 20.4118 34.1708 20.4118 28.6979C20.4118 25.8859 22.6909 23.6068 25.5012 23.6068C28.3115 23.6068 30.5906 25.8859 30.5906 28.6979C30.5906 31.5099 32.8697 33.789 35.68 33.789C38.4903 33.789 40.7694 31.5099 40.7694 28.6979C40.7694 20.2619 33.9337 13.4246 25.5029 13.4246C17.072 13.4246 10.2363 20.2619 10.2363 28.6979C10.2363 30.5782 10.4468 32.4093 10.8337 34.1742" stroke="#B4DFD4" stroke-width="3" stroke-linecap="round" stroke-linejoin="round"/>
<path d="M39.7096 14.7718C36.2391 10.8296 31.165 8.33325 25.5003 8.33325C19.8356 8.33325 14.7615 10.8296 11.291 14.7718" stroke="#B4DFD4" stroke-width="3" stroke-linecap="round" stroke-linejoin="round"/>
<path d="M39.7096 14.7718C36.2391 10.8296 31.165 8.33325 25.5003 8.33325C19.8356 8.33325 14.7615 10.8296 11.291 14.7718" stroke="#B4DFD4" stroke-width="3" stroke-linecap="round" stroke-linejoin="round"/>
</svg>
