<svg width="24" height="24" viewBox="0 0 24 24" fill="none" xmlns="http://www.w3.org/2000/svg">
<g clip-path="url(#clip0_183_2263)">
<rect x="3.05176e-05" width="24" height="24" rx="12" fill="#E7F5F1"/>
<rect x="0.750031" y="0.75" width="22.5" height="22.5" rx="11.25" stroke="#0E9874" stroke-width="1.5"/>
<path fill-rule="evenodd" clip-rule="evenodd" d="M17.0964 7.39004L9.93641 14.3L8.03641 12.27C7.68641 11.94 7.13641 11.92 6.73641 12.2C6.34641 12.49 6.23641 13 6.47641 13.41L8.72641 17.07C8.94641 17.41 9.32641 17.62 9.75641 17.62C10.1664 17.62 10.5564 17.41 10.7764 17.07C11.1364 16.6 18.0064 8.41004 18.0064 8.41004C18.9064 7.49004 17.8164 6.68004 17.0964 7.38004V7.39004Z" fill="#0D8A6A"/>
</g>
<defs>
<clipPath id="clip0_183_2263">
<rect x="3.05176e-05" width="24" height="24" rx="12" fill="white"/>
</clipPath>
</defs>
</svg>
