<svg width="24" height="28" viewBox="0 0 24 28" fill="none" xmlns="http://www.w3.org/2000/svg">
<path d="M22.6667 26C22.6667 24.1392 22.6667 23.2089 22.437 22.4518C21.92 20.7473 20.5861 19.4134 18.8815 18.8963C18.1245 18.6667 17.1941 18.6667 15.3333 18.6667H8.66668C6.80593 18.6667 5.87555 18.6667 5.11849 18.8963C3.41395 19.4134 2.08006 20.7473 1.563 22.4518C1.33334 23.2089 1.33334 24.1392 1.33334 26M18 8C18 11.3137 15.3137 14 12 14C8.6863 14 6.00001 11.3137 6.00001 8C6.00001 4.68629 8.6863 2 12 2C15.3137 2 18 4.68629 18 8Z" stroke="#475467" stroke-width="2.66667" stroke-linecap="round" stroke-linejoin="round"/>
</svg>
